<svg width="21" height="20" viewBox="0 0 21 20" fill="none" xmlns="http://www.w3.org/2000/svg">
<path fill-rule="evenodd" clip-rule="evenodd" d="M18.3687 10C18.3687 14.4182 14.7869 18 10.3687 18C5.95037 18 2.36865 14.4182 2.36865 10C2.36865 5.58172 5.95037 2 10.3687 2C14.7869 2 18.3687 5.58172 18.3687 10ZM12.7687 7.6C12.7687 8.92552 11.6942 10 10.3687 10C9.04313 10 7.96865 8.92552 7.96865 7.6C7.96865 6.27452 9.04313 5.2 10.3687 5.2C11.6942 5.2 12.7687 6.27452 12.7687 7.6ZM10.3687 16.8C11.7959 16.8 13.1204 16.3603 14.2142 15.609C14.6973 15.2771 14.9037 14.645 14.6229 14.1306C14.0407 13.0642 12.8408 12.4 10.3686 12.4C7.8964 12.4 6.69663 13.0642 6.11436 14.1306C5.83349 14.645 6.03993 15.277 6.52302 15.6089C7.6168 16.3602 8.94137 16.8 10.3687 16.8Z" fill="white"/>
</svg>
