<svg width="20" height="20" viewBox="0 0 20 20" fill="none" xmlns="http://www.w3.org/2000/svg">
<path fill-rule="evenodd" clip-rule="evenodd" d="M10.2289 3.58949C10.0793 3.54674 9.92072 3.54674 9.7711 3.58949L9.5424 2.78905L9.77109 3.58949L5.6044 4.77996C5.6044 4.77997 5.6044 4.77997 5.60439 4.77997C5.24664 4.88219 4.99999 5.20917 4.99999 5.58124V10.0599C4.99999 11.9439 5.9098 13.7117 7.44277 14.8067L9.51561 16.2873L9.51567 16.2873C9.80539 16.4943 10.1946 16.4943 10.4843 16.2873L10.4844 16.2873L12.5572 14.8067C14.0902 13.7117 15 11.9439 15 10.0599V5.58124C15 5.2092 14.7533 4.88219 14.3956 4.77997L10.2289 3.58949ZM9.31323 1.98695C9.76211 1.8587 10.2379 1.8587 10.6868 1.98695L14.8534 3.17743L14.6245 3.9787L14.8534 3.17743C15.9267 3.48407 16.6667 4.46501 16.6667 5.58124V10.0599C16.6667 12.4821 15.4969 14.7551 13.5259 16.1629L11.4532 17.6435C11.4531 17.6435 11.4531 17.6435 11.4531 17.6435C10.5839 18.2645 9.41613 18.2645 8.54688 17.6435C8.54686 17.6435 8.54684 17.6435 8.54682 17.6435L6.47404 16.1629L6.47404 16.1629C4.50308 14.7551 3.33333 12.4821 3.33333 10.0599V5.58124C3.33333 4.46504 4.07327 3.48407 5.14652 3.17743L5.14653 3.17742L9.31323 1.98695Z" fill="#484848"/>
<path fill-rule="evenodd" clip-rule="evenodd" d="M13.0696 7.0495C13.4054 7.36428 13.4224 7.89164 13.1076 8.2274L9.98261 11.5607C9.68408 11.8792 9.1904 11.9133 8.8509 11.6389L6.9759 10.1238C6.61793 9.8345 6.56224 9.30981 6.85151 8.95184C7.14078 8.59388 7.66547 8.53819 8.02344 8.82746L9.29625 9.856L11.8917 7.0875C12.2065 6.75174 12.7339 6.73473 13.0696 7.0495Z" fill="#484848"/>
</svg>
