<svg width="15" height="13" viewBox="0 0 15 13" fill="none" xmlns="http://www.w3.org/2000/svg">
<path fill-rule="evenodd" clip-rule="evenodd" d="M2.20919 5.15942C2.20919 2.30995 4.51913 0 7.36863 0C10.2181 0 12.528 2.30995 12.528 5.15942V5.79711C12.528 7.32793 12.7359 8.68501 13.0527 9.63527C13.2122 10.1141 13.3869 10.4513 13.5471 10.6546C13.6657 10.8051 13.7366 10.8355 13.7528 10.8406C14.1336 10.8446 14.441 11.1545 14.441 11.5362V11.6812C14.441 12.0654 14.1296 12.3768 13.7454 12.3768H0.991795C0.607593 12.3768 0.296143 12.0654 0.296143 11.6812V11.5362C0.296143 11.1545 0.603628 10.8446 0.984435 10.8406C1.00067 10.8355 1.07145 10.8051 1.19006 10.6546C1.35027 10.4513 1.52497 10.1141 1.68457 9.63527C2.00133 8.68501 2.20919 7.32793 2.20919 5.79711V5.15942ZM0.980831 10.8415L0.98271 10.8411L0.98161 10.8414L0.980831 10.8415Z" fill="white"/>
</svg>
